# xmcd
#
# Track frame offsets: 
#        150
#        12148
#        24606
#        37234
#        51286
#        63450
#        77811
#        90742
#        102441
#        115047
#        127586
#        140948
#        154906
#        167454
#        180502
#        192679
#        205810
#        218425
#        230881
#        243952
#        254780
#        267537
#        279511
#
# Disc length: 3900 seconds
#
# Revision: 1
# Processed by: cddbd v1.5.2PL0 Copyright (c) Steve Scherf et al.
# Submitted via: ExactAudioCopy v1.0b3
#
DISCID=540f3a17
DTITLE=Memphis Slim - Blue And Lonesome
DYEAR=1947
DGENRE=Blues
TTITLE0=Now I Got The Blues
TTITLE1=Don't Ration My Love
TTITLE2=Mistake In Life
TTITLE3=Grinder Man Blues
TTITLE4=Slim's Boogie
TTITLE5=Little Mary
TTITLE6=Cheatin' Around
TTITLE7=A Letter Home
TTITLE8=Kilroy Has Been Here
TTITLE9=Rockin' The House
TTITLE10=Lend Me Your Love
TTITLE11=Darling I Miss You
TTITLE12=Pacemaker Boogie
TTITLE13=Motherless Child
TTITLE14=Harlem Bound
TTITLE15=Life Is Like That
TTITLE16=Everyday I Have The Blues
TTITLE17=I Believe I'll Settle Down
TTITLE18=Throw This Poor Dog A Bone
TTITLE19=Help Me Some
TTITLE20=Country Girl
TTITLE21=Blue And Lonesome
TTITLE22=Angel Child
EXTD=Walle upped this
EXTT0=
EXTT1=
EXTT2=
EXTT3=
EXTT4=
EXTT5=
EXTT6=
EXTT7=
EXTT8=
EXTT9=
EXTT10=
EXTT11=
EXTT12=
EXTT13=
EXTT14=
EXTT15=
EXTT16=
EXTT17=
EXTT18=
EXTT19=
EXTT20=
EXTT21=
EXTT22=
PLAYORDER=
